<?xml version="1.0" encoding="UTF-8"?>
<svg id="_Слой_1" xmlns="http://www.w3.org/2000/svg" viewBox="0 0 1000 1000">
    <path d="m500,0L0,250v500l500,250,500-250V250L500,0Zm472.22,736.11l-472.22,236.11L27.78,736.11v-472.22L500,27.78l472.22,236.11v472.22Z" fill="var(--SupportColor2)" stroke-width="0"/>
    <path d="m500,27.78L27.78,263.89v472.22l472.22,236.11,472.22-236.11v-472.22L500,27.78Zm388.89,666.67l-388.89,194.44-388.89-194.44v-388.89L500,111.11l388.89,194.44v388.89Z" fill="var(--SecondaryColor)" stroke-width="0"/>
    <path d="m500,111.11L111.11,305.56v388.89l388.89,194.44,388.89-194.44v-388.89L500,111.11Zm-27.78,736.11l-333.33-166.67v-333.33l333.33,166.67v333.33ZM166.67,305.56l333.33-166.67,333.33,166.67-333.33,166.67-333.33-166.67Zm694.44,375l-333.33,166.67v-333.33l333.33-166.67v333.33Z" fill="var(--SupportColor2)" stroke-width="0"/>
    <path d="m138.89,347.22v333.33l333.33,166.67v-333.33l-333.33-166.67Zm83.33,347.22l-55.56-27.78v-55.56l55.56,27.78v55.56Zm0-222.22l-55.56-27.78v-55.56l55.56,27.78v55.56Zm111.11,166.67l-55.56-27.78v-55.56l55.56,27.78v55.56Zm111.11,166.67l-55.56-27.78v-55.56l55.56,27.78v55.56Zm0-222.22l-55.56-27.78v-55.56l55.56,27.78v55.56Z" fill="var(--SupportColor4)" stroke-width="0"/>
    <polygon poi="444.44 750 444.44 805.56 388.89 777.78 388.89 722.22 444.44 750" fill="var(--SupportColor2)" stroke-width="0"/>
    <polygon poi="222.22 416.67 222.22 472.22 166.67 444.44 166.67 388.89 222.22 416.67" fill="var(--SupportColor2)" stroke-width="0"/>
    <polygon poi="222.22 638.89 222.22 694.44 166.67 666.67 166.67 611.11 222.22 638.89" fill="var(--SupportColor2)" stroke-width="0"/>
    <polygon poi="333.33 583.33 333.33 638.89 277.78 611.11 277.78 555.56 333.33 583.33" fill="var(--SupportColor2)" stroke-width="0"/>
    <polygon poi="444.44 527.78 444.44 583.33 388.89 555.56 388.89 500 444.44 527.78" fill="var(--SupportColor2)" stroke-width="0"/>
    <path d="m500,138.89l-333.33,166.67,333.33,166.67,333.33-166.67-333.33-166.67Zm0,27.78l55.56,27.78-55.56,27.78-55.56-27.78,55.56-27.78Zm-277.78,138.89l55.56-27.78,55.56,27.78-55.56,27.78-55.56-27.78Zm111.11,55.56l55.56-27.78,55.56,27.78-55.56,27.78-55.56-27.78Zm166.67,83.33l-55.56-27.78,55.56-27.78,55.56,27.78-55.56,27.78Zm55.56-194.44l55.56-27.78,55.56,27.78-55.56,27.78-55.56-27.78Zm111.11,55.56l55.56-27.78,55.56,27.78-55.56,27.78-55.56-27.78Z" fill="var(--SupportColor4)" stroke-width="0"/>
    <polygon poi="555.56 416.67 500 444.44 444.44 416.67 500 388.89 555.56 416.67" fill="var(--SupportColor2)" stroke-width="0"/>
    <polygon poi="444.44 361.11 388.89 388.89 333.33 361.11 388.89 333.33 444.44 361.11" fill="var(--SupportColor2)" stroke-width="0"/>
    <polygon poi="333.33 305.56 277.78 333.33 222.22 305.56 277.78 277.78 333.33 305.56" fill="var(--SupportColor2)" stroke-width="0"/>
    <polygon poi="555.56 194.44 500 222.22 444.44 194.44 500 166.67 555.56 194.44" fill="var(--SupportColor2)" stroke-width="0"/>
    <polygon poi="666.67 250 611.11 277.78 555.56 250 611.11 222.22 666.67 250" fill="var(--SupportColor2)" stroke-width="0"/>
    <polygon poi="777.78 305.56 722.22 333.33 666.67 305.56 722.22 277.78 777.78 305.56" fill="var(--SupportColor2)" stroke-width="0"/>
    <path d="m527.78,513.89v333.33l333.33-166.67v-333.33l-333.33,166.67Zm83.33,263.89l-55.56,27.78v-55.56l55.56-27.78v55.56Zm111.11-166.67l-55.56,27.78v-55.56l55.56-27.78v55.56Zm111.11-166.67l-55.56,27.78v-55.56l55.56-27.78v55.56Z" fill="var(--SupportColor4)" stroke-width="0"/>
    <polygon poi="833.33 388.89 833.33 444.44 777.78 472.22 777.78 416.67 833.33 388.89" fill="var(--SupportColor2)" stroke-width="0"/>
    <polygon poi="722.22 555.56 722.22 611.11 666.67 638.89 666.67 583.33 722.22 555.56" fill="var(--SupportColor2)" stroke-width="0"/>
    <polygon poi="611.11 722.22 611.11 777.78 555.56 805.56 555.56 750 611.11 722.22" fill="var(--SupportColor2)" stroke-width="0"/>
</svg>